<?xml version="1.0" encoding="UTF-8" standalone="no"?>
<!-- Created with Inkscape (http://www.inkscape.org/) -->

<svg
   width="26.521524mm"
   height="13.03479mm"
   viewBox="0 0 26.521524 13.03479"
   version="1.1"
   id="svg4445"
   xmlns="http://www.w3.org/2000/svg"
   xmlns:svg="http://www.w3.org/2000/svg">
  <defs
     id="defs4442" />
  <g
     id="layer1"
     style="display:inline"
     transform="translate(53.955475,-42.744627)">
    <path
       style="fill:#0078c1;fill-opacity:1;stroke-width:0.0619662"
       d="M -50.084042,55.718198 C -51.9079,55.450099 -53.426294,54.0765 -53.856645,52.305352 l -0.09883,-0.406738 9.67e-4,-0.646687 9.67e-4,-0.646685 0.09121,-0.386824 c 0.256903,-1.089586 1.017456,-2.160332 1.961541,-2.761563 0.622798,-0.396621 1.249616,-0.61322 2.019696,-0.697913 l 0.387289,-0.04259 v 1.703467 1.703468 l -0.361177,0.03275 -0.361178,0.03275 -0.338251,0.160019 c -1.124605,0.532021 -1.700755,1.76859 -1.386386,2.975535 0.128613,0.493776 0.345779,0.840426 0.776084,1.238811 l 0.365332,0.338235 0.358449,0.142958 0.358448,0.142959 0.622935,0.0017 0.622935,0.0017 0.472917,-0.233758 0.472917,-0.233757 0.243685,-0.27684 0.243685,-0.276841 0.07662,-0.273665 0.07662,-0.273663 -0.04044,-0.239379 c -0.09005,-0.532997 -0.458697,-0.937494 -0.983098,-1.0787 l -0.248371,-0.06688 -0.219625,0.0412 c -0.120793,0.02266 -0.325489,0.09521 -0.454879,0.161221 l -0.235255,0.120024 v -0.651904 -0.651905 h 1.61112 1.61112 l -4.35e-4,1.564646 -4.35e-4,1.564646 -0.338425,0.278427 c -1.048498,0.862619 -2.30039,1.236087 -3.535072,1.054593 z m 4.432034,-1.518918 v -1.580137 h 9.109028 9.10903 v 1.580137 1.580137 h -9.10903 -9.109028 z m 1.115391,0.216882 v -0.743594 h 0.123933 0.123932 v 0.743594 0.743594 h 0.247865 0.247864 V 54.19928 53.238804 h -0.619661 -0.619662 v 0.960476 0.960476 h 0.247865 0.247864 z m 2.856133,0.402779 0.108638,-0.309831 0.0048,0.325323 0.0048,0.325323 h 0.247864 0.247865 v -0.96404 -0.964038 l -0.260856,0.01906 -0.260857,0.01905 -0.104865,0.340814 -0.104866,0.340815 -0.0061,-0.356306 -0.0061,-0.356306 h -0.247865 -0.247865 v 0.964039 0.964038 l 0.258358,-0.01905 0.258355,-0.01905 z m 2.844754,-0.402779 v -0.743594 h 0.15492 0.15491 v -0.216881 -0.216883 h -0.58868 -0.588677 v 0.216883 0.216881 h 0.1859 0.1859 v 0.743594 0.743594 h 0.247867 0.24786 z m 2.01468,0.554133 0.0416,-0.189461 0.13372,0.01905 0.13371,0.01905 0.0196,0.170407 0.0196,0.170408 h 0.27278 0.27279 l -0.0256,-0.07746 c -0.0141,-0.0426 -0.0987,-0.426017 -0.18803,-0.852036 -0.0893,-0.426017 -0.17645,-0.823375 -0.19354,-0.883017 l -0.0311,-0.108441 h -0.29666 -0.29665 l -0.19568,0.914002 c -0.10763,0.502699 -0.19533,0.934914 -0.1949,0.960475 4.8e-4,0.02556 0.1101,0.04648 0.24372,0.04648 h 0.24294 z m 0.0922,-0.705392 c 0,-0.08319 0.0279,-0.168493 0.062,-0.189556 l 0.062,-0.0383 v 0.189556 c 0,0.104255 -0.0279,0.189556 -0.062,0.189556 -0.0341,0 -0.062,-0.06807 -0.062,-0.151259 z m 2.66454,0.523055 v -0.371796 h 0.093 0.093 v 0.371796 0.371798 h 0.27885 0.27885 V 54.19928 53.238804 h -0.27885 -0.27885 v 0.371797 0.371797 h -0.093 -0.093 v -0.371797 -0.371797 h -0.27884 -0.27885 v 0.960476 0.960476 h 0.27885 0.27884 z m 2.8021,0.108441 0.10119,-0.263356 0.005,0.263356 0.005,0.263357 h 0.24787 0.24786 V 54.19928 53.238804 h -0.23593 -0.23593 l -0.13017,0.387289 -0.13016,0.387288 -0.006,-0.387288 -0.006,-0.387289 h -0.24787 -0.24786 v 0.960476 0.960476 h 0.26604 0.26604 z m 0.11032,-0.356306 c 0,-0.04544 0.0186,-0.06403 0.0413,-0.04131 0.0227,0.02272 0.0227,0.0599 0,0.08262 -0.0227,0.02272 -0.0413,0.0041 -0.0413,-0.04131 z m 3.0983,0.433763 v -0.185898 h -0.30983 -0.30983 V 54.60206 54.416162 h 0.27885 0.27885 V 54.19928 53.982398 h -0.27885 -0.27885 v -0.154915 -0.154915 h 0.30983 0.30983 v -0.216881 -0.216883 h -0.55769 -0.5577 v 0.960476 0.960476 h 0.5577 0.55769 z m -17.536451,-5.979735 v -2.261765 h 0.836543 0.836543 v 0.278848 0.278848 h -0.40278 -0.40278 v 1.982917 1.982917 h -0.433763 -0.433763 z m 1.708806,1.936444 c 0.02024,-0.178928 0.126007,-1.189752 0.235033,-2.246275 l 0.19823,-1.920951 0.690905,-0.01748 0.690906,-0.01748 0.03629,0.265347 c 0.01996,0.145941 0.119362,1.087949 0.220894,2.09335 0.101531,1.005401 0.197883,1.904685 0.214118,1.998409 l 0.02952,0.170406 h -0.423791 -0.423791 l -0.03941,-0.287497 c -0.02167,-0.158122 -0.03941,-0.43697 -0.03941,-0.61966 v -0.332166 h -0.24118 -0.241181 l -0.04435,0.619662 -0.04435,0.619661 h -0.427621 -0.427619 z m 1.307369,-1.735054 c -0.0205,-0.213008 -0.05619,-0.728876 -0.0793,-1.146374 -0.06753,-1.21994 -0.13325,-0.991036 -0.249069,0.867527 l -0.04151,0.666136 h 0.203582 0.203582 z m 1.660767,1.973875 c -0.10307,-0.04491 -0.22158,-0.156667 -0.263356,-0.248355 l -0.07596,-0.166705 V 50.23053 49.706732 h 0.431158 0.431156 l 0.0181,0.480237 0.0181,0.480239 h 0.123932 0.123933 l 0.01774,-0.680818 0.01774,-0.680816 -0.107038,-0.07827 c -0.05887,-0.04305 -0.22719,-0.07827 -0.374043,-0.07827 h -0.267002 v -0.208998 -0.208997 l 0.316435,-0.03041 0.316436,-0.03041 0.0556,-0.08592 c 0.03058,-0.04725 0.04852,-0.350825 0.03987,-0.674597 l -0.01573,-0.588679 -0.139424,-0.0198 -0.139424,-0.0198 v 0.438073 0.438074 h -0.433762 -0.433764 v -0.467825 -0.467824 l 0.0883,-0.170756 c 0.04857,-0.09392 0.161418,-0.204072 0.250781,-0.244787 l 0.162479,-0.07403 h 0.526873 0.526874 l 0.174094,0.09003 c 0.09575,0.04951 0.208499,0.173089 0.250551,0.27461 l 0.07645,0.184583 -0.0213,0.660466 -0.02126,0.660464 -0.146287,0.118349 c -0.08046,0.06509 -0.212914,0.118351 -0.294341,0.118351 -0.08143,0 -0.148051,0.02788 -0.148051,0.06197 0,0.03408 0.08163,0.06197 0.181401,0.06197 h 0.181402 l 0.128431,0.163273 0.128435,0.163271 V 50.028 50.766314 l -0.09107,0.176104 -0.09107,0.176104 -0.197029,0.06868 c -0.108366,0.03778 -0.408974,0.06759 -0.66802,0.06626 l -0.47099,-0.0024 -0.187401,-0.08165 z m 2.201299,-2.175265 v -2.261765 h 1.05343 1.05342 v 2.261765 2.261765 h -0.46474 -0.46475 v -1.982917 -1.982917 h -0.15491 -0.15492 v 1.982917 1.982917 h -0.43376 -0.43377 z m 2.66455,0 v -2.261765 h 0.77765 0.77766 l 0.1761,0.09107 0.1761,0.09107 0.0687,0.197027 0.0687,0.197028 v 0.926373 0.926372 l -0.098,0.206441 -0.098,0.206441 -0.19014,0.06628 c -0.10457,0.03645 -0.32539,0.06628 -0.49071,0.06628 h -0.30059 v 0.774577 0.774577 h -0.43376 -0.43376 z m 1.14637,-0.743594 v -0.929492 l -0.13942,-0.0198 -0.13943,-0.0198 v 0.969095 0.969095 l 0.13943,-0.0198 0.13942,-0.0198 z m 1.72444,2.918651 c -0.10808,-0.04901 -0.22659,-0.14531 -0.26335,-0.214006 l -0.0669,-0.124902 v -1.859603 -1.859603 l 0.14955,-0.173862 0.14955,-0.173863 h 0.68559 0.68558 l 0.17182,0.171815 0.17181,0.171816 v 1.887151 1.887153 l -0.16888,0.168883 -0.16889,0.168886 -0.57471,0.01962 -0.57471,0.01962 z m 0.77867,-0.556074 0.0706,-0.08509 -0.0165,-1.603491 -0.0166,-1.603491 -0.13942,-0.0198 -0.13942,-0.0198 V 48.9485 c 0,0.916888 0.0186,1.685659 0.0413,1.70838 0.0629,0.06291 0.12226,0.04992 0.20003,-0.04378 z m 1.43174,-1.621308 v -2.264091 l 0.57168,0.01782 0.57168,0.01782 0.28964,1.549155 c 0.15931,0.852035 0.29484,1.563096 0.30118,1.580137 0.006,0.01704 0.13391,-0.62431 0.28348,-1.425223 0.14957,-0.800913 0.28712,-1.518945 0.30568,-1.595627 l 0.0337,-0.139425 h 0.55651 0.55652 v 2.261765 2.261765 h -0.43376 -0.43377 l -0.005,-1.440713 -0.005,-1.440713 -0.0467,0.154915 c -0.0257,0.0852 -0.1397,0.733525 -0.25334,1.440713 l -0.20661,1.285798 h -0.34811 -0.34811 l -0.20743,-1.316781 c -0.11408,-0.724229 -0.22965,-1.37255 -0.25682,-1.440713 l -0.0494,-0.123932 -0.004,1.440713 -0.004,1.440713 h -0.43377 -0.43376 z m -17.160311,1.473022 c -0.499764,-0.841229 -0.833363,-1.88946 -0.94184,-2.959449 l -0.07154,-0.705614 0.07369,-0.654871 c 0.126551,-1.124648 0.398564,-1.964387 0.963601,-2.974766 l 0.237947,-0.425491 0.121862,0.150371 c 0.187468,0.231326 0.648202,1.180914 0.816546,1.68293 0.08306,0.247697 0.197965,0.726146 0.255341,1.063217 l 0.104319,0.612858 -0.0313,0.87433 -0.0313,0.874329 -0.159566,0.608085 c -0.08776,0.334447 -0.256077,0.831313 -0.374034,1.104148 -0.231411,0.535248 -0.593895,1.169195 -0.668536,1.169195 -0.02536,0 -0.158195,-0.188673 -0.295192,-0.419272 z m 0.500711,-0.246866 0.143331,-0.418271 -6.78e-4,-0.619662 -6.77e-4,-0.619661 -0.103893,-0.340814 c -0.05714,-0.187448 -0.141884,-0.392732 -0.188318,-0.456188 l -0.08443,-0.115375 -0.144066,0.36324 -0.144066,0.363239 -0.0299,0.582416 -0.0299,0.582418 0.07568,0.338192 c 0.09276,0.414454 0.232277,0.758739 0.307487,0.758739 0.03084,0 0.120581,-0.188222 0.199413,-0.418273 z m -0.851997,-3.770262 c 0.13756,-0.528842 0.373165,-1.201 0.520198,-1.484073 l 0.127341,-0.245161 0.18396,0.402781 c 0.38645,0.846124 0.629518,1.884271 0.630397,2.692429 l 4.99e-4,0.430664 0.06367,-0.06367 c 0.03502,-0.03502 0.08025,-0.382181 0.10051,-0.771479 l 0.03682,-0.707813 -0.06924,-0.560432 c -0.102284,-0.827772 -0.287642,-1.467521 -0.636578,-2.197058 l -0.311201,-0.650645 -0.204572,0.40278 c -0.29458,0.579997 -0.57858,1.42215 -0.684581,2.030001 l -0.09188,0.526847 v 0.726828 c 0,0.399756 0.01944,0.863172 0.04319,1.029816 l 0.04319,0.302989 0.07654,-0.749412 c 0.04209,-0.412178 0.119374,-0.914104 0.171733,-1.115392 z"
       id="path229" />
  </g>
</svg>
